<?xml version="1.0" encoding="UTF-8"?>
<!DOCTYPE svg PUBLIC "-//W3C//DTD SVG 1.1//EN" "http://www.w3.org/Graphics/SVG/1.1/DTD/svg11.dtd">
<svg xmlns="http://www.w3.org/2000/svg" version="1.1" width="300px" height="222px" style="shape-rendering:geometricPrecision; text-rendering:geometricPrecision; image-rendering:optimizeQuality; fill-rule:evenodd; clip-rule:evenodd" xmlns:xlink="http://www.w3.org/1999/xlink">
<g><path style="opacity:1" fill="#e22e2f" d="M -0.5,-0.5 C 99.5,-0.5 199.5,-0.5 299.5,-0.5C 299.5,73.5 299.5,147.5 299.5,221.5C 199.5,221.5 99.5,221.5 -0.5,221.5C -0.5,147.5 -0.5,73.5 -0.5,-0.5 Z"/></g>
<g><path style="opacity:1" fill="#fdf7f7" d="M 153.5,42.5 C 160.157,41.9649 166.49,43.1316 172.5,46C 177.753,49.4226 180.753,54.256 181.5,60.5C 177.774,60.8226 174.107,60.4892 170.5,59.5C 168.216,54.7688 164.383,52.4354 159,52.5C 150.816,53.0169 146.149,57.3502 145,65.5C 143.338,74.1818 145.838,81.3485 152.5,87C 159.094,89.6135 164.927,88.4469 170,83.5C 171.128,81.6547 171.628,79.6547 171.5,77.5C 167.833,77.5 164.167,77.5 160.5,77.5C 160.5,74.1667 160.5,70.8333 160.5,67.5C 167.5,67.5 174.5,67.5 181.5,67.5C 181.5,77.1667 181.5,86.8333 181.5,96.5C 179.167,96.5 176.833,96.5 174.5,96.5C 174.769,94.5714 174.269,92.9047 173,91.5C 163.307,100.229 153.141,100.729 142.5,93C 133.524,83.0404 131.024,71.5404 135,58.5C 138.6,50.0576 144.767,44.7243 153.5,42.5 Z"/></g>
<g><path style="opacity:1" fill="#f0b3b2" d="M 73.5,96.5 C 73.5,79.1667 73.5,61.8333 73.5,44.5C 70.1667,44.5 66.8333,44.5 63.5,44.5C 63.5,61.8333 63.5,79.1667 63.5,96.5C 62.5033,79.0079 62.1699,61.3412 62.5,43.5C 66.5,43.5 70.5,43.5 74.5,43.5C 74.8301,61.3412 74.4967,79.0079 73.5,96.5 Z"/></g>
<g><path style="opacity:1" fill="#fefffe" d="M 73.5,96.5 C 70.1667,96.5 66.8333,96.5 63.5,96.5C 63.5,79.1667 63.5,61.8333 63.5,44.5C 66.8333,44.5 70.1667,44.5 73.5,44.5C 73.5,61.8333 73.5,79.1667 73.5,96.5 Z"/></g>
<g><path style="opacity:1" fill="#eb9695" d="M 113.5,44.5 C 104.167,44.5 94.8333,44.5 85.5,44.5C 85.5,61.8333 85.5,79.1667 85.5,96.5C 84.5033,79.0079 84.1699,61.3412 84.5,43.5C 94.3478,43.1729 104.014,43.5062 113.5,44.5 Z"/></g>
<g><path style="opacity:1" fill="#fefbfb" d="M 113.5,44.5 C 123.586,46.4315 127.419,52.4315 125,62.5C 123.691,64.9757 121.858,66.9757 119.5,68.5C 128.237,74.7181 129.737,82.3848 124,91.5C 121.531,93.6515 118.698,95.1515 115.5,96C 105.506,96.4998 95.5056,96.6665 85.5,96.5C 85.5,79.1667 85.5,61.8333 85.5,44.5C 94.8333,44.5 104.167,44.5 113.5,44.5 Z"/></g>
<g><path style="opacity:1" fill="#fefefe" d="M 202.5,53.5 C 202.5,57.1667 202.5,60.8333 202.5,64.5C 210.316,65.4924 218.316,65.8257 226.5,65.5C 226.5,68.1667 226.5,70.8333 226.5,73.5C 218.167,73.5 209.833,73.5 201.5,73.5C 201.181,78.3633 201.514,83.03 202.5,87.5C 211.833,87.5 221.167,87.5 230.5,87.5C 230.5,90.5 230.5,93.5 230.5,96.5C 217.5,96.5 204.5,96.5 191.5,96.5C 191.5,79.1667 191.5,61.8333 191.5,44.5C 203.833,44.5 216.167,44.5 228.5,44.5C 228.5,47.1667 228.5,49.8333 228.5,52.5C 219.651,52.1736 210.984,52.507 202.5,53.5 Z"/></g>
<g><path style="opacity:1" fill="#f0b1b1" d="M 202.5,53.5 C 210.984,52.507 219.651,52.1736 228.5,52.5C 228.5,49.8333 228.5,47.1667 228.5,44.5C 216.167,44.5 203.833,44.5 191.5,44.5C 191.5,61.8333 191.5,79.1667 191.5,96.5C 190.503,79.0079 190.17,61.3412 190.5,43.5C 203.5,43.5 216.5,43.5 229.5,43.5C 229.5,46.8333 229.5,50.1667 229.5,53.5C 220.5,53.5 211.5,53.5 202.5,53.5 Z"/></g>
<g><path style="opacity:1" fill="#e23030" d="M 96.5,53.5 C 101.511,53.3341 106.511,53.5007 111.5,54C 116.701,57.2402 116.701,60.5735 111.5,64C 106.511,64.4993 101.511,64.6659 96.5,64.5C 96.5,60.8333 96.5,57.1667 96.5,53.5 Z"/></g>
<g><path style="opacity:1" fill="#f1bbbb" d="M 202.5,64.5 C 210.833,64.5 219.167,64.5 227.5,64.5C 227.5,67.8333 227.5,71.1667 227.5,74.5C 219.167,74.5 210.833,74.5 202.5,74.5C 202.5,78.8333 202.5,83.1667 202.5,87.5C 201.514,83.03 201.181,78.3633 201.5,73.5C 209.833,73.5 218.167,73.5 226.5,73.5C 226.5,70.8333 226.5,68.1667 226.5,65.5C 218.316,65.8257 210.316,65.4924 202.5,64.5 Z"/></g>
<g><path style="opacity:1" fill="#f1bfbf" d="M 110.5,74.5 C 105.833,74.5 101.167,74.5 96.5,74.5C 96.5,78.8333 96.5,83.1667 96.5,87.5C 95.5139,83.03 95.1805,78.3633 95.5,73.5C 100.695,73.1795 105.695,73.5128 110.5,74.5 Z"/></g>
<g><path style="opacity:1" fill="#e22f30" d="M 110.5,74.5 C 115.85,75.1837 117.684,78.1837 116,83.5C 115.626,84.4162 115.126,85.2496 114.5,86C 108.577,87.3041 102.577,87.8041 96.5,87.5C 96.5,83.1667 96.5,78.8333 96.5,74.5C 101.167,74.5 105.833,74.5 110.5,74.5 Z"/></g>
<g><path style="opacity:1" fill="#fefcfc" d="M 74.5,158.5 C 74.7828,159.289 75.2828,159.956 76,160.5C 76.4999,148.505 76.6665,136.505 76.5,124.5C 80.1667,124.5 83.8333,124.5 87.5,124.5C 87.5,142.5 87.5,160.5 87.5,178.5C 83.4454,178.824 79.4454,178.491 75.5,177.5C 68.6667,165.833 61.8333,154.167 55,142.5C 54.5001,154.495 54.3335,166.495 54.5,178.5C 50.8333,178.5 47.1667,178.5 43.5,178.5C 43.5,160.5 43.5,142.5 43.5,124.5C 47.5546,124.176 51.5546,124.509 55.5,125.5C 62.1096,136.392 68.4429,147.392 74.5,158.5 Z"/></g>
<g><path style="opacity:1" fill="#fefcfc" d="M 110.5,145.5 C 118.65,146.493 126.983,146.826 135.5,146.5C 135.5,149.167 135.5,151.833 135.5,154.5C 126.983,154.174 118.65,154.507 110.5,155.5C 110.5,160.167 110.5,164.833 110.5,169.5C 120.167,169.5 129.833,169.5 139.5,169.5C 139.5,172.5 139.5,175.5 139.5,178.5C 126.167,178.5 112.833,178.5 99.5,178.5C 99.5,160.5 99.5,142.5 99.5,124.5C 112.5,124.5 125.5,124.5 138.5,124.5C 138.5,127.833 138.5,131.167 138.5,134.5C 129.167,134.5 119.833,134.5 110.5,134.5C 110.5,138.167 110.5,141.833 110.5,145.5 Z"/></g>
<g><path style="opacity:1" fill="#fef7f7" d="M 144.5,124.5 C 148.5,124.5 152.5,124.5 156.5,124.5C 158.677,137.218 161.177,149.885 164,162.5C 167.08,149.935 169.58,137.269 171.5,124.5C 175.767,124.203 179.934,124.536 184,125.5C 186.794,137.805 189.461,150.139 192,162.5C 194.823,149.885 197.323,137.218 199.5,124.5C 203.5,124.5 207.5,124.5 211.5,124.5C 207.006,141.809 202.506,159.142 198,176.5C 194.506,178.377 190.673,179.044 186.5,178.5C 183.861,165.139 181.028,151.806 178,138.5C 175.333,151.167 172.667,163.833 170,176.5C 166.506,178.377 162.673,179.044 158.5,178.5C 153.709,160.547 149.042,142.547 144.5,124.5 Z"/></g>
<g><path style="opacity:1" fill="#fdf6f6" d="M 230.5,123.5 C 238.173,122.736 245.507,123.903 252.5,127C 257.384,130.602 259.718,135.435 259.5,141.5C 255.833,141.5 252.167,141.5 248.5,141.5C 247.467,135.462 243.8,132.462 237.5,132.5C 230.798,132.694 227.965,136.027 229,142.5C 230.419,143.46 231.919,144.293 233.5,145C 239.562,146.079 245.562,147.412 251.5,149C 262.47,155.422 264.303,163.922 257,174.5C 248.273,180.544 238.773,182.044 228.5,179C 220.713,176.261 216.713,170.761 216.5,162.5C 220.226,162.177 223.893,162.511 227.5,163.5C 228.331,166.337 229.998,168.504 232.5,170C 236.833,170.667 241.167,170.667 245.5,170C 249.292,167.947 250.458,164.781 249,160.5C 248.5,160 248,159.5 247.5,159C 240.178,157.001 232.845,155.001 225.5,153C 217.958,149.061 215.458,142.895 218,134.5C 220.505,128.822 224.671,125.155 230.5,123.5 Z"/></g>
<g><path style="opacity:1" fill="#eb9999" d="M 76.5,124.5 C 76.6665,136.505 76.4999,148.505 76,160.5C 75.2828,159.956 74.7828,159.289 74.5,158.5C 75.1667,147.167 75.8333,135.833 76.5,124.5 Z"/></g>
<g><path style="opacity:1" fill="#f7d8d8" d="M 110.5,145.5 C 119.167,145.5 127.833,145.5 136.5,145.5C 136.5,148.833 136.5,152.167 136.5,155.5C 127.833,155.5 119.167,155.5 110.5,155.5C 118.65,154.507 126.983,154.174 135.5,154.5C 135.5,151.833 135.5,149.167 135.5,146.5C 126.983,146.826 118.65,146.493 110.5,145.5 Z"/></g>
</svg>
